# xmcd CD database file
#
# Track frame offsets:
#	150
#	13067
#	26317
#	39107
#	51552
#	65455
#	79895
#	94267
#	108460
#	122782
#	136940
#	149475
#	161575
#	174775
#	187815
#	200097
#	214592
#	228337
#	242717
#	256562
#
# Disc length: 3586 seconds
#
# Revision: 0
# Processed by: cddbd v1.4PL0 Copyright (c) Steve Scherf et al.
# Submitted via: CDex 1.50beta10
#
DISCID=0c0e0014
DTITLE=Ma Rainey - The Mother Of The Blues
DYEAR=1998
DGENRE=Blues
TTITLE0=New Bo Weavil Blues
TTITLE1=Moonshine Blues
TTITLE2=Barrel House Blues
TTITLE3=Dream Blues
TTITLE4=Lucky Rock Blues
TTITLE5=Jealous Hearted Blues
TTITLE6=See See Rider Blues
TTITLE7=Jelly Bean Blues
TTITLE8=Countin The Blues
TTITLE9=Chain Gang Blues
TTITLE10=Jealousy Blues
TTITLE11=Mountain Jack Blues
TTITLE12=Blues Oh Blues
TTITLE13=Oh Papa Blues
TTITLE14=Deep Moaning Blues
TTITLE15=Daddy Goodby Blues
TTITLE16=Blame It On The Blues
TTITLE17=Black Eyed Blues
TTITLE18=Ma and Pa Poorhouse Blues
TTITLE19=Big Feeling Blues
EXTD=YEAR: 1998
EXTT0=
EXTT1=
EXTT2=
EXTT3=
EXTT4=
EXTT5=
EXTT6=
EXTT7=
EXTT8=
EXTT9=
EXTT10=
EXTT11=
EXTT12=
EXTT13=
EXTT14=
EXTT15=
EXTT16=
EXTT17=
EXTT18=
EXTT19=
PLAYORDER=
